<svg viewBox="0 0 480 360" xmlns="http://www.w3.org/2000/svg" fill="none">
  <defs>
    <linearGradient id="g1" x1="0" y1="0" x2="1" y2="1">
      <stop offset="0%" stop-color="#38bdf8" />
      <stop offset="100%" stop-color="#6366f1" />
    </linearGradient>
  </defs>
  <rect x="20" y="20" width="440" height="260" rx="36" fill="url(#g1)" opacity="0.18" />
  <rect x="42" y="60" width="396" height="200" rx="32" fill="#0f172a" stroke="#334155" stroke-width="2" />
  <circle cx="102" cy="115" r="14" fill="#38bdf8" opacity="0.95" />
  <circle cx="138" cy="115" r="6" fill="#94a3b8" />
  <circle cx="170" cy="115" r="6" fill="#94a3b8" />
  <circle cx="202" cy="115" r="6" fill="#94a3b8" />
  <rect x="70" y="145" width="320" height="18" rx="9" fill="#1e293b" />
  <rect x="70" y="178" width="240" height="14" rx="7" fill="#334155" />
  <rect x="70" y="202" width="180" height="14" rx="7" fill="#334155" />
  <rect x="70" y="226" width="280" height="14" rx="7" fill="#334155" />
  <path d="M160 130c24-24 60-18 82 4" stroke="#38bdf8" stroke-width="8" stroke-linecap="round" opacity="0.9" />
  <path d="M260 172c6 20 30 39 58 22" stroke="#818cf8" stroke-width="7" stroke-linecap="round" opacity="0.85" />
  <path d="M360 108c-12 12-18 32-12 48" stroke="#0ea5e9" stroke-width="5" stroke-linecap="round" opacity="0.9" />
  <rect x="94" y="90" width="108" height="80" rx="24" fill="#0f172a" stroke="#38bdf8" stroke-width="4" />
  <path d="M126 124c12-18 40-20 54 0" stroke="#22d3ee" stroke-width="6" stroke-linecap="round" />
  <path d="M126 148c16 16 36 16 52 0" stroke="#38bdf8" stroke-width="6" stroke-linecap="round" />
</svg>
